<mxfile host="app.diagrams.net" modified="2024-06-06T11:21:53.334Z" agent="Mozilla/5.0 (Windows NT 10.0; Win64; x64) AppleWebKit/537.36 (KHTML, like Gecko) Chrome/121.0.0.0 Safari/537.36" etag="lNt_Wjl9p07LnqivPMid" version="24.4.15" type="google">
  <diagram name="PÃ¡gina-1" id="gAYTWEUvoM4HMDJTzD4B">
    <mxGraphModel grid="1" page="1" gridSize="10" guides="1" tooltips="1" connect="1" arrows="1" fold="1" pageScale="1" pageWidth="827" pageHeight="1169" math="0" shadow="0">
      <root>
        <mxCell id="0" />
        <mxCell id="1" parent="0" />
        <mxCell id="dF0iZluLqn2ATEqQNhMA-3" value="Actor" style="shape=umlActor;verticalLabelPosition=bottom;verticalAlign=top;html=1;" vertex="1" parent="1">
          <mxGeometry x="470" y="330" width="50" height="100" as="geometry" />
        </mxCell>
        <mxCell id="dF0iZluLqn2ATEqQNhMA-6" value="Actor" style="shape=umlActor;verticalLabelPosition=bottom;verticalAlign=top;html=1;" vertex="1" parent="1">
          <mxGeometry x="230" y="330" width="50" height="100" as="geometry" />
        </mxCell>
        <mxCell id="dF0iZluLqn2ATEqQNhMA-8" value="Cadastrar" style="ellipse;whiteSpace=wrap;html=1;" vertex="1" parent="1">
          <mxGeometry x="310" y="280" width="120" height="70" as="geometry" />
        </mxCell>
        <mxCell id="dF0iZluLqn2ATEqQNhMA-9" value="" style="ellipse;whiteSpace=wrap;html=1;" vertex="1" parent="1">
          <mxGeometry x="320" y="380" width="120" height="80" as="geometry" />
        </mxCell>
      </root>
    </mxGraphModel>
  </diagram>
</mxfile>
